%TF.GenerationSoftware,KiCad,Pcbnew,7.0.7*%
%TF.CreationDate,2023-10-05T00:16:33-07:00*%
%TF.ProjectId,neighboard-plate,6e656967-6862-46f6-9172-642d706c6174,1.1*%
%TF.SameCoordinates,Original*%
%TF.FileFunction,Soldermask,Top*%
%TF.FilePolarity,Negative*%
%FSLAX46Y46*%
G04 Gerber Fmt 4.6, Leading zero omitted, Abs format (unit mm)*
G04 Created by KiCad (PCBNEW 7.0.7) date 2023-10-05 00:16:33*
%MOMM*%
%LPD*%
G01*
G04 APERTURE LIST*
%ADD10C,0.500000*%
%ADD11C,4.000000*%
G04 APERTURE END LIST*
D10*
%TO.C,Ref\u002A\u002A*%
X285800000Y-119750000D03*
X286240000Y-118690000D03*
X286240000Y-120810000D03*
X287300000Y-118250000D03*
D11*
X287300000Y-119750000D03*
D10*
X287300000Y-121250000D03*
X288360000Y-118690000D03*
X288360000Y-120810000D03*
X288800000Y-119750000D03*
%TD*%
%TO.C,Ref\u002A\u002A*%
X75150000Y-126700000D03*
X75590000Y-125640000D03*
X75590000Y-127760000D03*
X76650000Y-125200000D03*
D11*
X76650000Y-126700000D03*
D10*
X76650000Y-128200000D03*
X77710000Y-125640000D03*
X77710000Y-127760000D03*
X78150000Y-126700000D03*
%TD*%
%TO.C,Ref\u002A\u002A*%
X144450000Y-98000000D03*
X144890000Y-96940000D03*
X144890000Y-99060000D03*
X145950000Y-96500000D03*
D11*
X145950000Y-98000000D03*
D10*
X145950000Y-99500000D03*
X147010000Y-96940000D03*
X147010000Y-99060000D03*
X147450000Y-98000000D03*
%TD*%
%TO.C,Ref\u002A\u002A*%
X335550000Y-126250000D03*
X335990000Y-125190000D03*
X335990000Y-127310000D03*
X337050000Y-124750000D03*
D11*
X337050000Y-126250000D03*
D10*
X337050000Y-127750000D03*
X338110000Y-125190000D03*
X338110000Y-127310000D03*
X338550000Y-126250000D03*
%TD*%
%TO.C,Ref\u002A\u002A*%
X124900000Y-120200000D03*
X125340000Y-119140000D03*
X125340000Y-121260000D03*
X126400000Y-118700000D03*
D11*
X126400000Y-120200000D03*
D10*
X126400000Y-121700000D03*
X127460000Y-119140000D03*
X127460000Y-121260000D03*
X127900000Y-120200000D03*
%TD*%
%TO.C,Ref\u002A\u002A*%
X191000000Y-155850000D03*
X191440000Y-154790000D03*
X191440000Y-156910000D03*
X192500000Y-154350000D03*
D11*
X192500000Y-155850000D03*
D10*
X192500000Y-157350000D03*
X193560000Y-154790000D03*
X193560000Y-156910000D03*
X194000000Y-155850000D03*
%TD*%
%TO.C,Ref\u002A\u002A*%
X266300000Y-97550000D03*
X266740000Y-96490000D03*
X266740000Y-98610000D03*
X267800000Y-96050000D03*
D11*
X267800000Y-97550000D03*
D10*
X267800000Y-99050000D03*
X268860000Y-96490000D03*
X268860000Y-98610000D03*
X269300000Y-97550000D03*
%TD*%
%TO.C,Ref\u002A\u002A*%
X219700000Y-155400000D03*
X220140000Y-154340000D03*
X220140000Y-156460000D03*
X221200000Y-153900000D03*
D11*
X221200000Y-155400000D03*
D10*
X221200000Y-156900000D03*
X222260000Y-154340000D03*
X222260000Y-156460000D03*
X222700000Y-155400000D03*
%TD*%
M02*
