M48
; DRILL file {KiCad 7.0.7} date Thu Oct  5 00:16:31 2023
; FORMAT={-:-/ absolute / inch / decimal}
; #@! TF.CreationDate,2023-10-05T00:16:31-07:00
; #@! TF.GenerationSoftware,Kicad,Pcbnew,7.0.7
; #@! TF.FileFunction,Plated,1,2,PTH
FMAT,2
INCH
; #@! TA.AperFunction,Plated,PTH,ComponentDrill
T1C0.0157
; #@! TA.AperFunction,Plated,PTH,ComponentDrill
T2C0.0906
%
G90
G05
T1
X2.9587Y-4.9882
X2.976Y-4.9465
X2.976Y-5.0299
X3.0177Y-4.9291
X3.0177Y-5.0472
X3.0594Y-4.9465
X3.0594Y-5.0299
X3.0768Y-4.9882
X4.9173Y-4.7323
X4.9346Y-4.6906
X4.9346Y-4.774
X4.9764Y-4.6732
X4.9764Y-4.7913
X5.0181Y-4.6906
X5.0181Y-4.774
X5.0354Y-4.7323
X5.687Y-3.8583
X5.7043Y-3.8165
X5.7043Y-3.9
X5.7461Y-3.7992
X5.7461Y-3.9173
X5.7878Y-3.8165
X5.7878Y-3.9
X5.8051Y-3.8583
X7.5197Y-6.1358
X7.537Y-6.0941
X7.537Y-6.1776
X7.5787Y-6.0768
X7.5787Y-6.1949
X7.6205Y-6.0941
X7.6205Y-6.1776
X7.6378Y-6.1358
X8.6496Y-6.1181
X8.6669Y-6.0764
X8.6669Y-6.1598
X8.7087Y-6.0591
X8.7087Y-6.1772
X8.7504Y-6.0764
X8.7504Y-6.1598
X8.7677Y-6.1181
X10.4843Y-3.8406
X10.5016Y-3.7988
X10.5016Y-3.8823
X10.5433Y-3.7815
X10.5433Y-3.8996
X10.585Y-3.7988
X10.585Y-3.8823
X10.6024Y-3.8406
X11.252Y-4.7146
X11.2693Y-4.6728
X11.2693Y-4.7563
X11.311Y-4.6555
X11.311Y-4.7736
X11.3528Y-4.6728
X11.3528Y-4.7563
X11.3701Y-4.7146
X13.2106Y-4.9705
X13.228Y-4.9287
X13.228Y-5.0122
X13.2697Y-4.9114
X13.2697Y-5.0295
X13.3114Y-4.9287
X13.3114Y-5.0122
X13.3287Y-4.9705
T2
X3.0177Y-4.9882
X4.9764Y-4.7323
X5.7461Y-3.8583
X7.5787Y-6.1358
X8.7087Y-6.1181
X10.5433Y-3.8406
X11.311Y-4.7146
X13.2697Y-4.9705
T0
M30
