<?xml version="1.0" encoding="utf-8"?>
<!-- Generator: Adobe Illustrator 27.5.0, SVG Export Plug-In . SVG Version: 6.00 Build 0)  -->
<svg version="1.1" id="Default" xmlns="http://www.w3.org/2000/svg" xmlns:xlink="http://www.w3.org/1999/xlink" x="0px" y="0px"
	 viewBox="0 0 453.5 453.5" style="enable-background:new 0 0 453.5 453.5;" xml:space="preserve">
<style type="text/css">
	.st0{fill:none;stroke:#000000;}
</style>
<line class="st0" x1="84.7" y1="268.1" x2="48.6" y2="311.1"/>
<line class="st0" x1="45.2" y1="271.5" x2="88.2" y2="307.6"/>
<path class="st0" d="M420.4,341.5l-1.6,5.8l-3.3,12.2l-13.3,49.4c-1.2,4.5-5.9,7.2-10.4,6l-46.5-12.5c-11.4-3.1-22.8-6.1-34.2-9.2
	c-4-1.1-6.7-5.3-6.2-9.4c0-0.2,0-0.4,0-0.6c0-0.4-0.2-0.7-0.6-0.9c-0.2-0.1-0.3-0.2-0.5-0.2l-194.1-52c-1.8-0.5-3.5-1-5.3-1.4
	c-1.8-0.5-3.6-0.9-5.4-1s-3.7-0.1-5.5,0.1c-1.8,0.1-3.7,0.3-5.5,0.5c-11.8,1-23.6,2.1-35.4,3.1c-4.4,0.4-8.8-3.3-9.2-7.7l-5.8-66.5
	l-0.8-9.6c-0.2-2.1,0.6-4.3,1.9-6l-0.2-2l-4.1-47.4c-0.3-3.1,2-5.9,5.2-6.1l105.1-9.2l2.8-0.2l0-1.4c-0.2-4.4,3.8-8.6,8.2-8.8
	l42.8-1.5c0.6,0,1.1-0.4,1.3-0.9l5-13.9c1.2-3.4,4.4-5.6,8-5.6h38.3c3.6,0,6.8,2.2,8,5.6l4.4,12c0.2,0.5,0.7,0.9,1.3,0.9l44.2,1.5
	c4.4,0.2,8.4,4.3,8.2,8.8c-0.3,8.7-0.6,17.5-0.9,26.2c0,0.8,0.6,1.4,1.4,1.5c0.9,0,1.9,0.1,2.8,0.1c12.7,0.4,25.5,0.9,38.2,1.3
	c4.4,0.2,8.4,4.3,8.2,8.8l-0.8,24.1l53.1,1.9c4.7,0.2,8.4,4.1,8.2,8.8l-2.3,65.9C424.5,321.9,423,331.8,420.4,341.5"/>
<polyline class="st0" points="14.4,439.6 14.4,14.4 439.6,14.4 439.6,439.6 14.4,439.6 "/>
</svg>
