<?xml version="1.0" encoding="utf-8"?>
<!-- Generator: Adobe Illustrator 27.5.0, SVG Export Plug-In . SVG Version: 6.00 Build 0)  -->
<svg version="1.1" id="Default" xmlns="http://www.w3.org/2000/svg" xmlns:xlink="http://www.w3.org/1999/xlink" x="0px" y="0px"
	 viewBox="0 0 453.5 453.5" style="enable-background:new 0 0 453.5 453.5;" xml:space="preserve">
<style type="text/css">
	.st0{fill:none;stroke:#000000;}
</style>
<line class="st0" x1="84.7" y1="268.1" x2="48.6" y2="311.1"/>
<line class="st0" x1="45.2" y1="271.5" x2="88.2" y2="307.6"/>
<polyline class="st0" points="14.4,14.4 439.6,14.4 439.6,439.6 14.4,439.6 14.4,14.4 "/>
<path class="st0" d="M421.4,247.8l-1.7,49.6c-0.1,2.7-2.4,4.9-5.1,4.8l-40.3-1.4c-2.7-0.1-4.9-2.4-4.8-5.1l1.7-49.6
	c0.1-2.7,2.4-4.9,5.1-4.8l40.3,1.4C419.4,242.8,421.5,245.1,421.4,247.8"/>
<polyline class="st0" points="43.8,235.5 141.3,227 137.4,183.1 39.9,191.6 43.8,235.5 "/>
</svg>
