<?xml version="1.0" encoding="UTF-8" standalone="no"?>
<svg
   viewBox="0 0 793.7007874015749 1122.5196850393702"
   width="793.7007874015749"
   height="1122.5196850393702"
   version="1.1"
   id="svg50"
   sodipodi:docname="plate.svg"
   inkscape:version="1.3 (0e150ed, 2023-07-21)"
   xmlns:inkscape="http://www.inkscape.org/namespaces/inkscape"
   xmlns:sodipodi="http://sodipodi.sourceforge.net/DTD/sodipodi-0.dtd"
   xmlns="http://www.w3.org/2000/svg"
   xmlns:svg="http://www.w3.org/2000/svg">
  <sodipodi:namedview
     id="namedview50"
     pagecolor="#ffffff"
     bordercolor="#000000"
     borderopacity="0.25"
     inkscape:showpageshadow="2"
     inkscape:pageopacity="0.0"
     inkscape:pagecheckerboard="0"
     inkscape:deskcolor="#d1d1d1"
     inkscape:zoom="0.21024131"
     inkscape:cx="147.44962"
     inkscape:cy="970.3136"
     inkscape:window-width="1312"
     inkscape:window-height="449"
     inkscape:window-x="0"
     inkscape:window-y="37"
     inkscape:window-maximized="0"
     inkscape:current-layer="g50" />
  <desc
     id="desc1">plate.dxf - scale = 1.000000, origin = (0.000000, 0.000000), method = file</desc>
  <defs
     id="defs4">
    <marker
       id="DistanceX"
       orient="auto"
       refX="0.0"
       refY="0.0"
       style="overflow:visible">
      <path
         d="M 3,-3 L -3,3 M 0,-5 L  0,5"
         style="stroke:#000000; stroke-width:0.5"
         id="path1" />
    </marker>
    <pattern
       id="Hatch"
       patternUnits="userSpaceOnUse"
       width="8"
       height="8"
       x="0"
       y="0">
      <path
         d="M8 4 l-4,4"
         stroke="#000000"
         stroke-width="0.25"
         linecap="square"
         id="path2" />
      <path
         d="M6 2 l-4,4"
         stroke="#000000"
         stroke-width="0.25"
         linecap="square"
         id="path3" />
      <path
         d="M4 0 l-4,4"
         stroke="#000000"
         stroke-width="0.25"
         linecap="square"
         id="path4" />
    </pattern>
    <symbol
       id="*Model_Space" />
    <symbol
       id="*Paper_Space" />
    <symbol
       id="*Paper_Space0" />
  </defs>
  <g
     inkscape:groupmode="layer"
     inkscape:label="0"
     id="g4" />
  <g
     inkscape:groupmode="layer"
     inkscape:label="Default"
     id="g50">
    <path
       style="fill:none;stroke:#000000"
       d="M 155.909 1363.78 L 110.28 1351.55"
       id="path5" />
    <path
       style="fill:none;stroke:#000000"
       d="M 265.194 1277.17 L 263.117 1284.92"
       id="path6" />
    <path
       d="M 253.886261,1245.455154 C 262.706605,1247.818747 269.429940,1258.424467 267.482736,1267.622587"
       style="fill:none;stroke:#000000"
       id="path7" />
    <path
       style="fill:none;stroke:#000000"
       d="M 189.716 1218.73 L 193.796 1101.72"
       id="path8" />
    <path
       d="M 126.542994,1078.573407 C 126.508511,1079.562199 127.376786,1080.493378 128.365710,1080.527885"
       style="fill:none;stroke:#000000"
       id="path9" />
    <path
       style="fill:none;stroke:#000000"
       d="M 109.271 1031.65 L 55.4232 1029.77"
       id="path10" />
    <path
       style="fill:none;stroke:#000000"
       d="M -19.1386 1004.94 L 31.8943 1004.94"
       id="path11" />
    <path
       d="M -43.584136,1032.288022 C -42.837000,1032.261952 -42.129950,1031.748305 -41.874239,1031.045745"
       style="fill:none;stroke:#000000"
       id="path12" />
    <path
       style="fill:none;stroke:#000000"
       d="M -113.782 1053.65 L -111.852 1109.01"
       id="path13" />
    <path
       d="M -261.302024,1150.534094 C -262.169092,1140.628333 -254.049715,1130.929796 -244.124971,1130.060662"
       style="fill:none;stroke:#000000"
       id="path14" />
    <path
       d="M -252.423094,1251.980949 C -252.423098,1251.980909 -252.423101,1251.980870 -252.423105,1251.980830"
       style="fill:none;stroke:#000000"
       id="path15" />
    <path
       style="fill:none;stroke:#000000"
       d="M -283.465 1405.98 L -283.465 839.055"
       id="path16" />
    <path
       d="M 110.280198,1351.551990 C 104.296755,1349.948194 99.460071,1345.126297 97.412164,1339.304876"
       style="fill:none;stroke:#000000"
       id="path17" />
    <path
       style="fill:none;stroke:#000000"
       d="M 241.101 1367.05 L 258.773 1301.13"
       id="path18" />
    <path
       style="fill:none;stroke:#000000"
       d="M 198.513 1230.62 L 253.886 1245.46"
       id="path19" />
    <path
       d="M 175.568417,1082.174934 C 185.506092,1082.521690 194.142738,1091.762805 193.795582,1101.719569"
       style="fill:none;stroke:#000000"
       id="path20" />
    <path
       style="fill:none;stroke:#000000"
       d="M 127.498 1051.19 L 126.543 1078.57"
       id="path21" />
    <path
       d="M 53.713293,1028.527266 C 53.968984,1029.229773 54.675996,1029.743472 55.423190,1029.769543"
       style="fill:none;stroke:#000000"
       id="path22" />
    <path
       d="M -19.138608,1004.935470 C -26.834203,1004.935470 -34.264317,1010.137655 -36.896578,1017.369735"
       style="fill:none;stroke:#000000"
       id="path23" />
    <path
       style="fill:none;stroke:#000000"
       d="M -95.5551 1034.1 L -43.5841 1032.29"
       id="path24" />
    <path
       d="M -120.935170,1119.272631 C -115.894705,1118.831225 -111.676120,1114.039715 -111.851691,1109.005251"
       style="fill:none;stroke:#000000"
       id="path25" />
    <path
       d="M -261.301997,1150.534398 C -261.302006,1150.534297 -261.302015,1150.534196 -261.302024,1150.534094"
       style="fill:none;stroke:#000000"
       id="path26" />
    <path
       style="fill:none;stroke:#000000"
       d="M -260.185 1163.28 L -252.423 1251.98"
       id="path27" />
    <path
       d="M -231.952845,1269.159047 C -241.857927,1270.024333 -251.554434,1261.904895 -252.423094,1251.980949"
       style="fill:none;stroke:#000000"
       id="path28" />
    <path
       style="fill:none;stroke:#000000"
       d="M 283.465 1405.98 L -283.465 1405.98"
       id="path29" />
    <path
       style="fill:none;stroke:#000000"
       d="M 49.6523 1017.37 L 53.7133 1028.53"
       id="path30" />
    <path
       style="fill:none;stroke:#000000"
       d="M -242.428 1181.88 L -185.13 1229.97"
       id="path31" />
    <path
       style="fill:none;stroke:#000000"
       d="M -158.272 1267.34 L 92.8588 1334.66"
       id="path32" />
    <path
       d="M 97.412164,1339.304876 C 96.649382,1337.136576 95.019356,1335.235310 92.858841,1334.656219"
       style="fill:none;stroke:#000000"
       id="path33" />
    <path
       d="M 217.955354,1380.413126 C 227.511987,1382.974676 238.539201,1376.610507 241.101202,1367.052624"
       style="fill:none;stroke:#000000"
       id="path34" />
    <path
       style="fill:none;stroke:#000000"
       d="M -283.465 839.055 L 283.465 839.055"
       id="path35" />
    <path
       style="fill:none;stroke:#000000"
       d="M 155.909 1363.78 L 217.955 1380.41"
       id="path36" />
    <path
       style="fill:none;stroke:#000000"
       d="M 258.773 1301.13 L 263.117 1284.92"
       id="path37" />
    <path
       d="M 265.193803,1277.172003 C 266.041396,1274.009943 266.804735,1270.825298 267.482736,1267.622587"
       style="fill:none;stroke:#000000"
       id="path38" />
    <path
       d="M 189.715927,1218.728079 C 189.529957,1224.061899 193.379908,1229.241228 198.513491,1230.616877"
       style="fill:none;stroke:#000000"
       id="path39" />
    <path
       style="fill:none;stroke:#000000"
       d="M 128.366 1080.53 L 175.568 1082.17"
       id="path40" />
    <path
       d="M 109.270683,1031.648450 C 119.208405,1031.995207 127.845075,1041.236417 127.497844,1051.193225"
       style="fill:none;stroke:#000000"
       id="path41" />
    <path
       d="M 49.652283,1017.369735 C 47.020235,1010.138241 39.590531,1004.935470 31.894313,1004.935470"
       style="fill:none;stroke:#000000"
       id="path42" />
    <path
       style="fill:none;stroke:#000000"
       d="M -36.8966 1017.37 L -41.8742 1031.05"
       id="path43" />
    <path
       d="M -95.555108,1034.101450 C -105.443017,1034.446470 -114.127144,1043.756986 -113.782269,1053.646226"
       style="fill:none;stroke:#000000"
       id="path44" />
    <path
       style="fill:none;stroke:#000000"
       d="M -244.125 1130.06 L -120.935 1119.27"
       id="path45" />
    <path
       style="fill:none;stroke:#000000"
       d="M -261.302 1150.53 L -260.185 1163.28"
       id="path46" />
    <path
       style="fill:none;stroke:#000000"
       d="M -231.953 1269.16 L -184.692 1265.03"
       id="path47" />
    <path
       style="fill:none;stroke:#000000"
       d="M 283.465 839.055 L 283.465 1405.98"
       id="path48" />
    <path
       d="M -184.692446,1265.030482 C -176.025126,1264.273324 -166.638947,1265.102056 -158.271612,1267.344782"
       style="fill:none;stroke:#000000"
       id="path49" />
    <path
       style="fill:none;stroke:#000000"
       d="M -189.729 1177.27 L -237.816 1234.59"
       id="path50" />
  </g>
</svg>
