%TF.GenerationSoftware,KiCad,Pcbnew,7.0.7*%
%TF.CreationDate,2023-10-03T23:41:34-07:00*%
%TF.ProjectId,neighboard,6e656967-6862-46f6-9172-642e6b696361,1.1*%
%TF.SameCoordinates,Original*%
%TF.FileFunction,Soldermask,Top*%
%TF.FilePolarity,Negative*%
%FSLAX46Y46*%
G04 Gerber Fmt 4.6, Leading zero omitted, Abs format (unit mm)*
G04 Created by KiCad (PCBNEW 7.0.7) date 2023-10-03 23:41:34*
%MOMM*%
%LPD*%
G01*
G04 APERTURE LIST*
G04 Aperture macros list*
%AMRotRect*
0 Rectangle, with rotation*
0 The origin of the aperture is its center*
0 $1 length*
0 $2 width*
0 $3 Rotation angle, in degrees counterclockwise*
0 Add horizontal line*
21,1,$1,$2,0,0,$3*%
G04 Aperture macros list end*
%ADD10C,0.500000*%
%ADD11C,4.000000*%
%ADD12C,0.750000*%
%ADD13C,2.032000*%
%ADD14C,1.701800*%
%ADD15C,3.429000*%
%ADD16R,1.300000X0.950000*%
%ADD17RotRect,1.300000X0.950000X182.000000*%
%ADD18RotRect,1.300000X0.950000X178.000000*%
%ADD19C,1.500000*%
%ADD20RotRect,1.300000X0.950000X85.000000*%
%ADD21C,2.000000*%
%ADD22RotRect,1.300000X0.950000X75.000000*%
%ADD23RotRect,1.300000X0.950000X275.000000*%
%ADD24RotRect,2.600000X2.600000X175.000000*%
%ADD25C,2.600000*%
%ADD26RotRect,2.600000X2.600000X5.000000*%
%ADD27RotRect,1.300000X0.950000X285.000000*%
%ADD28C,0.900000*%
G04 APERTURE END LIST*
D10*
%TO.C,Ref\u002A\u002A*%
X221769209Y-139268582D03*
X224329209Y-140328582D03*
X224769209Y-139268582D03*
X223269209Y-140768582D03*
X223269209Y-137768582D03*
X222209209Y-138208582D03*
D11*
X223269209Y-139268582D03*
D10*
X224329209Y-138208582D03*
X222209209Y-140328582D03*
%TD*%
%TO.C,Ref\u002A\u002A*%
X224789210Y-165428582D03*
X227349210Y-166488582D03*
X227789210Y-165428582D03*
X226289210Y-166928582D03*
X226289210Y-163928582D03*
X225229210Y-164368582D03*
D11*
X226289210Y-165428582D03*
D10*
X227349210Y-164368582D03*
X225229210Y-166488582D03*
%TD*%
%TO.C,Ref\u002A\u002A*%
X290889210Y-129748582D03*
X293449210Y-130808582D03*
X293889210Y-129748582D03*
X292389210Y-131248582D03*
X292389210Y-128248582D03*
X291329210Y-128688582D03*
D11*
X292389210Y-129748582D03*
D10*
X293449210Y-128688582D03*
X291329210Y-130808582D03*
%TD*%
%TO.C,Ref\u002A\u002A*%
X271349209Y-107528582D03*
X273909209Y-108588582D03*
X274349209Y-107528582D03*
X272849209Y-109028582D03*
X272849209Y-106028582D03*
X271789209Y-106468582D03*
D11*
X272849209Y-107528582D03*
D10*
X273909209Y-106468582D03*
X271789209Y-108588582D03*
%TD*%
%TO.C,Ref\u002A\u002A*%
X340629210Y-136258582D03*
X343189210Y-137318582D03*
X343629210Y-136258582D03*
X342129210Y-137758582D03*
X342129210Y-134758582D03*
X341069210Y-135198582D03*
D11*
X342129210Y-136258582D03*
D10*
X343189210Y-135198582D03*
X341069210Y-137318582D03*
%TD*%
%TO.C,Ref\u002A\u002A*%
X72723179Y-136676587D03*
X75283179Y-137736587D03*
X75723179Y-136676587D03*
X74223179Y-138176587D03*
X74223179Y-135176587D03*
X73163179Y-135616587D03*
D11*
X74223179Y-136676587D03*
D10*
X75283179Y-135616587D03*
X73163179Y-137736587D03*
%TD*%
%TO.C,Ref\u002A\u002A*%
X122463179Y-130186587D03*
X125023179Y-131246587D03*
X125463179Y-130186587D03*
X123963179Y-131686587D03*
X123963179Y-128686587D03*
X122903179Y-129126587D03*
D11*
X123963179Y-130186587D03*
D10*
X125023179Y-129126587D03*
X122903179Y-131246587D03*
%TD*%
%TO.C,Ref\u002A\u002A*%
X142003180Y-107956587D03*
X144563180Y-109016587D03*
X145003180Y-107956587D03*
X143503180Y-109456587D03*
X143503180Y-106456587D03*
X142443180Y-106896587D03*
D11*
X143503180Y-107956587D03*
D10*
X144563180Y-106896587D03*
X142443180Y-109016587D03*
%TD*%
%TO.C,Ref\u002A\u002A*%
X191593179Y-139696587D03*
X194153179Y-140756587D03*
X194593179Y-139696587D03*
X193093179Y-141196587D03*
X193093179Y-138196587D03*
X192033179Y-138636587D03*
D11*
X193093179Y-139696587D03*
D10*
X194153179Y-138636587D03*
X192033179Y-140756587D03*
%TD*%
%TO.C,Ref\u002A\u002A*%
X188553179Y-165836587D03*
X191113179Y-166896587D03*
X191553179Y-165836587D03*
X190053179Y-167336587D03*
X190053179Y-164336587D03*
X188993179Y-164776587D03*
D11*
X190053179Y-165836587D03*
D10*
X191113179Y-164776587D03*
X188993179Y-166896587D03*
%TD*%
D12*
%TO.C,SW34*%
X222672371Y-182562105D03*
X220016075Y-183273857D03*
%TD*%
D13*
%TO.C,SW23*%
X320975605Y-139378631D03*
X318447817Y-144176577D03*
D14*
X323846009Y-150169867D03*
D15*
X324325366Y-144690796D03*
D14*
X324804723Y-139211725D03*
%TD*%
D13*
%TO.C,SW9*%
X79319670Y-151246900D03*
X80975900Y-146082899D03*
D14*
X74618994Y-141118047D03*
D15*
X75098351Y-146597118D03*
D14*
X75577708Y-152076189D03*
%TD*%
D16*
%TO.C,D2*%
X131650900Y-99932896D03*
X135200900Y-99932896D03*
%TD*%
D13*
%TO.C,SW6*%
X128425900Y-125432897D03*
X133425900Y-127532897D03*
D14*
X138925900Y-121632897D03*
D15*
X133425900Y-121632897D03*
D14*
X127925900Y-121632897D03*
%TD*%
D13*
%TO.C,SW30*%
X250202840Y-174537842D03*
X250937189Y-169164693D03*
D14*
X243814722Y-165379133D03*
D15*
X245238227Y-170691725D03*
D14*
X246661732Y-176004317D03*
%TD*%
D17*
%TO.C,D25*%
X262130805Y-140373671D03*
X265678643Y-140249777D03*
%TD*%
D13*
%TO.C,SW7*%
X147725899Y-132056085D03*
X152649564Y-134329303D03*
D14*
X158352121Y-128624844D03*
D15*
X152855471Y-128432897D03*
D14*
X147358821Y-128240950D03*
%TD*%
D18*
%TO.C,D27*%
X300070803Y-140939778D03*
X303618641Y-141063672D03*
%TD*%
%TO.C,D18*%
X301260803Y-106929778D03*
X304808641Y-107053672D03*
%TD*%
D19*
%TO.C,U1*%
X185757765Y-131802180D03*
X185669120Y-134340632D03*
X185580476Y-136879085D03*
X185491831Y-139417538D03*
X185403186Y-141955991D03*
X185314541Y-144494443D03*
X185225897Y-147032896D03*
X200456613Y-147564764D03*
X200545258Y-145026312D03*
X200633902Y-142487859D03*
X200722547Y-139949406D03*
X200811192Y-137410953D03*
X200899837Y-134872501D03*
X200988481Y-132334048D03*
%TD*%
D16*
%TO.C,D21*%
X281129723Y-116471723D03*
X284679723Y-116471723D03*
%TD*%
D13*
%TO.C,SW19*%
X240494480Y-128407502D03*
X245564723Y-130331725D03*
D14*
X250855466Y-124243372D03*
D15*
X245358816Y-124435319D03*
D14*
X239862166Y-124627266D03*
%TD*%
D20*
%TO.C,D23*%
X329139423Y-143333479D03*
X328830021Y-146869971D03*
%TD*%
D13*
%TO.C,SW27*%
X296541802Y-149346860D03*
X301465467Y-151620078D03*
D14*
X307168024Y-145915619D03*
D15*
X301671374Y-145723672D03*
D14*
X296174724Y-145531725D03*
%TD*%
D13*
%TO.C,SW5*%
X109225897Y-133105080D03*
X114296140Y-135029303D03*
D14*
X119586883Y-128940950D03*
D15*
X114090233Y-129132897D03*
D14*
X108593583Y-129324844D03*
%TD*%
D21*
%TO.C,THT4*%
X221872869Y-133186434D03*
%TD*%
D13*
%TO.C,SW3*%
X148296327Y-115056086D03*
X153219992Y-117329304D03*
D14*
X158922549Y-111624845D03*
D15*
X153425899Y-111432898D03*
D14*
X147929249Y-111240951D03*
%TD*%
D13*
%TO.C,SW26*%
X277914723Y-141991724D03*
X282914723Y-144091724D03*
D14*
X288414723Y-138191724D03*
D15*
X282914723Y-138191724D03*
D14*
X277414723Y-138191724D03*
%TD*%
D13*
%TO.C,SW12*%
X147142979Y-149048031D03*
X152066644Y-151321249D03*
D14*
X157769201Y-145616790D03*
D15*
X152272551Y-145424843D03*
D14*
X146775901Y-145232896D03*
%TD*%
D16*
%TO.C,D17*%
X281159723Y-99511724D03*
X284709723Y-99511724D03*
%TD*%
D22*
%TO.C,D14*%
X175085302Y-170568379D03*
X174166494Y-173997415D03*
%TD*%
D17*
%TO.C,D1*%
X111601980Y-107494844D03*
X115149818Y-107370950D03*
%TD*%
D20*
%TO.C,D28*%
X346119423Y-144783479D03*
X345810021Y-148319971D03*
%TD*%
D21*
%TO.C,THT2*%
X192087189Y-133603472D03*
%TD*%
D13*
%TO.C,SW1*%
X108661561Y-116105080D03*
X113731804Y-118029303D03*
D14*
X119022547Y-111940950D03*
D15*
X113525897Y-112132897D03*
D14*
X108029247Y-112324844D03*
%TD*%
D13*
%TO.C,SW24*%
X241083737Y-145395853D03*
X246153980Y-147320076D03*
D14*
X251444723Y-141231723D03*
D15*
X245948073Y-141423670D03*
D14*
X240451423Y-141615617D03*
%TD*%
D13*
%TO.C,SW8*%
X165896327Y-128456086D03*
X170819992Y-130729304D03*
D14*
X176522549Y-125024845D03*
D15*
X171025899Y-124832898D03*
D14*
X165529249Y-124640951D03*
%TD*%
D13*
%TO.C,SW10*%
X109808214Y-150113132D03*
X114878457Y-152037355D03*
D14*
X120169200Y-145949002D03*
D15*
X114672550Y-146140949D03*
D14*
X109175900Y-146332896D03*
%TD*%
D13*
%TO.C,SW4*%
X96247218Y-149782681D03*
X97903448Y-144618680D03*
D14*
X91546542Y-139653828D03*
D15*
X92025899Y-145132899D03*
D14*
X92505256Y-150611970D03*
%TD*%
D13*
%TO.C,SW28*%
X337914722Y-140861725D03*
X335386934Y-145659671D03*
D14*
X340785126Y-151652961D03*
D15*
X341264483Y-146173890D03*
D14*
X341743840Y-140694819D03*
%TD*%
D23*
%TO.C,D4*%
X87480601Y-147301144D03*
X87171199Y-143764652D03*
%TD*%
D13*
%TO.C,SW13*%
X165296325Y-145456083D03*
X170219990Y-147729301D03*
D14*
X175922547Y-142024842D03*
D15*
X170425897Y-141832895D03*
D14*
X164929247Y-141640948D03*
%TD*%
D13*
%TO.C,SW17*%
X277934723Y-108011723D03*
X282934723Y-110111723D03*
D14*
X288434723Y-104211723D03*
D15*
X282934723Y-104211723D03*
D14*
X277434723Y-104211723D03*
%TD*%
D16*
%TO.C,D6*%
X131650897Y-116932897D03*
X135200897Y-116932897D03*
%TD*%
D18*
%TO.C,D7*%
X151251980Y-123670951D03*
X154799818Y-123794845D03*
%TD*%
D21*
%TO.C,THT1*%
X188587189Y-139053472D03*
%TD*%
D24*
%TO.C,BT2*%
X350218286Y-115159170D03*
D25*
X320930162Y-112596792D03*
%TD*%
D17*
%TO.C,D10*%
X112751980Y-141494844D03*
X116299818Y-141370950D03*
%TD*%
D26*
%TO.C,BT1*%
X66231835Y-115614086D03*
D25*
X95519959Y-113051708D03*
%TD*%
D23*
%TO.C,D9*%
X70580599Y-148751143D03*
X70271197Y-145214651D03*
%TD*%
D13*
%TO.C,SW22*%
X297134724Y-132361725D03*
X302058389Y-134634943D03*
D14*
X307760946Y-128930484D03*
D15*
X302264296Y-128738537D03*
D14*
X296767646Y-128546590D03*
%TD*%
D13*
%TO.C,SW2*%
X128425898Y-108432896D03*
X133425898Y-110532896D03*
D14*
X138925898Y-104632896D03*
D15*
X133425898Y-104632896D03*
D14*
X127925898Y-104632896D03*
%TD*%
D16*
%TO.C,D11*%
X131650901Y-133932895D03*
X135200901Y-133932895D03*
%TD*%
D17*
%TO.C,D19*%
X243410805Y-119863671D03*
X246958643Y-119739777D03*
%TD*%
D27*
%TO.C,D30*%
X241164127Y-173606243D03*
X240245319Y-170177207D03*
%TD*%
D19*
%TO.C,U2*%
X230674939Y-131346113D03*
X230763584Y-133884565D03*
X230852228Y-136423018D03*
X230940873Y-138961471D03*
X231029518Y-141499924D03*
X231118163Y-144038376D03*
X231206807Y-146576829D03*
X215976091Y-147108697D03*
X215887446Y-144570245D03*
X215798802Y-142031792D03*
X215710157Y-139493339D03*
X215621512Y-136954886D03*
X215532867Y-134416434D03*
X215444223Y-131877981D03*
%TD*%
D17*
%TO.C,D5*%
X112151980Y-124474844D03*
X115699818Y-124350950D03*
%TD*%
D22*
%TO.C,D15*%
X191535303Y-174968380D03*
X190616495Y-178397416D03*
%TD*%
D13*
%TO.C,SW21*%
X277914723Y-125001725D03*
X282914723Y-127101725D03*
D14*
X288414723Y-121201725D03*
D15*
X282914723Y-121201725D03*
D14*
X277414723Y-121201725D03*
%TD*%
D16*
%TO.C,D26*%
X281139723Y-133431725D03*
X284689723Y-133431725D03*
%TD*%
D17*
%TO.C,D24*%
X244000804Y-136733672D03*
X247548642Y-136609778D03*
%TD*%
D18*
%TO.C,D22*%
X300670805Y-123899777D03*
X304218643Y-124023671D03*
%TD*%
D12*
%TO.C,SW33*%
X193739001Y-182875619D03*
X196395297Y-183587371D03*
%TD*%
D13*
%TO.C,SW20*%
X258614723Y-131991724D03*
X263684966Y-133915947D03*
D14*
X268975709Y-127827594D03*
D15*
X263479059Y-128019541D03*
D14*
X257982409Y-128211488D03*
%TD*%
D18*
%TO.C,D13*%
X168801978Y-137070950D03*
X172349816Y-137194844D03*
%TD*%
D13*
%TO.C,SW25*%
X259207037Y-148981960D03*
X264277280Y-150906183D03*
D14*
X269568023Y-144817830D03*
D15*
X264071373Y-145009777D03*
D14*
X258574723Y-145201724D03*
%TD*%
D18*
%TO.C,D12*%
X150651979Y-140620949D03*
X154199817Y-140744843D03*
%TD*%
D13*
%TO.C,SW14*%
X168744474Y-165287755D03*
X165421935Y-169573865D03*
D14*
X169697392Y-176413489D03*
D15*
X171120897Y-171100897D03*
D14*
X172544402Y-165788305D03*
%TD*%
D17*
%TO.C,D20*%
X261560803Y-123343672D03*
X265108641Y-123219778D03*
%TD*%
D21*
%TO.C,THT3*%
X218762868Y-138776435D03*
%TD*%
D18*
%TO.C,D3*%
X151801980Y-106670949D03*
X155349818Y-106794843D03*
%TD*%
D13*
%TO.C,SW29*%
X233772841Y-178940434D03*
X234507190Y-173567285D03*
D14*
X227384723Y-169781725D03*
D15*
X228808228Y-175094317D03*
D14*
X230231733Y-180406909D03*
%TD*%
D13*
%TO.C,SW16*%
X258034724Y-115001725D03*
X263104967Y-116925948D03*
D14*
X268395710Y-110837595D03*
D15*
X262899060Y-111029542D03*
D14*
X257402410Y-111221489D03*
%TD*%
D13*
%TO.C,SW15*%
X185194474Y-169687755D03*
X181871935Y-173973865D03*
D14*
X186147392Y-180813489D03*
D15*
X187570897Y-175500897D03*
D14*
X188994402Y-170188305D03*
%TD*%
D17*
%TO.C,D16*%
X260950804Y-106373672D03*
X264498642Y-106249778D03*
%TD*%
D13*
%TO.C,SW11*%
X128425898Y-142432896D03*
X133425898Y-144532896D03*
D14*
X138925898Y-138632896D03*
D15*
X133425898Y-138632896D03*
D14*
X127925898Y-138632896D03*
%TD*%
D27*
%TO.C,D29*%
X224754127Y-178016241D03*
X223835319Y-174587205D03*
%TD*%
D13*
%TO.C,SW18*%
X297734724Y-115361726D03*
X302658389Y-117634944D03*
D14*
X308360946Y-111930485D03*
D15*
X302864296Y-111738538D03*
D14*
X297367646Y-111546591D03*
%TD*%
D18*
%TO.C,D8*%
X169401979Y-120070948D03*
X172949817Y-120194842D03*
%TD*%
D28*
%TO.C,SW32*%
X217710178Y-170729796D03*
X218486635Y-173627573D03*
%TD*%
%TO.C,SW31*%
X197875898Y-174132897D03*
X198652355Y-171235120D03*
%TD*%
M02*
