M48
; DRILL file {KiCad 7.0.7} date Tue Oct  3 23:41:37 2023
; FORMAT={-:-/ absolute / inch / decimal}
; #@! TF.CreationDate,2023-10-03T23:41:37-07:00
; #@! TF.GenerationSoftware,Kicad,Pcbnew,7.0.7
; #@! TF.FileFunction,Plated,1,2,PTH
FMAT,2
INCH
; #@! TA.AperFunction,Plated,PTH,ViaDrill
T1C0.0157
; #@! TA.AperFunction,Plated,PTH,ComponentDrill
T2C0.0157
; #@! TA.AperFunction,Plated,PTH,ComponentDrill
T3C0.0197
; #@! TA.AperFunction,Plated,PTH,ComponentDrill
T4C0.0319
; #@! TA.AperFunction,Plated,PTH,ComponentDrill
T5C0.0472
; #@! TA.AperFunction,Plated,PTH,ComponentDrill
T6C0.0500
; #@! TA.AperFunction,Plated,PTH,ComponentDrill
T7C0.0906
%
G90
G05
T1
X3.5955Y-6.0589
X4.1998Y-6.0584
X4.2097Y-5.5564
X4.2097Y-6.0142
X5.3278Y-5.173
X5.4065Y-5.173
X6.0758Y-5.429
X6.0758Y-5.4683
X6.0994Y-6.0485
X6.1388Y-5.9861
X6.1742Y-5.429
X6.1742Y-5.4683
X6.1782Y-6.0485
X6.7845Y-5.2912
X6.7845Y-5.3305
X6.7845Y-5.2518
X6.7884Y-5.8911
X6.8868Y-5.6745
X6.9065Y-5.2021
X6.9223Y-6.458
X6.9223Y-5.8989
X6.9858Y-5.675
X7.064Y-6.521
X7.4616Y-5.2926
X7.5345Y-5.7001
X7.7352Y-5.6865
X7.736Y-6.7683
X8.6128Y-5.209
X8.6466Y-5.809
X8.6596Y-6.7833
X8.6763Y-5.624
X8.8704Y-6.7141
X8.9212Y-5.461
X9.2897Y-7.0739
X9.3702Y-5.4118
X9.3714Y-5.1755
X9.3868Y-5.7204
X9.5257Y-5.3672
X9.5435Y-6.4177
X9.5891Y-5.6976
X9.882Y-5.8417
X9.9804Y-5.7432
X12.5985Y-6.0188
X12.6182Y-5.9204
T2
X2.8631Y-5.381
X2.8804Y-5.3392
X2.8804Y-5.4227
X2.9222Y-5.3219
X2.9222Y-5.44
X2.9639Y-5.3392
X2.9639Y-5.4227
X2.9812Y-5.381
X4.8214Y-5.1255
X4.8387Y-5.0837
X4.8387Y-5.1672
X4.8804Y-5.0664
X4.8804Y-5.1845
X4.9222Y-5.0837
X4.9222Y-5.1672
X4.9395Y-5.1255
X5.5907Y-4.2503
X5.608Y-4.2085
X5.608Y-4.292
X5.6497Y-4.1912
X5.6497Y-4.3093
X5.6915Y-4.2085
X5.6915Y-4.292
X5.7088Y-4.2503
X7.4234Y-6.529
X7.4407Y-6.4873
X7.4407Y-6.5707
X7.4824Y-6.4699
X7.4824Y-6.5881
X7.5241Y-6.4873
X7.5241Y-6.5707
X7.5415Y-6.529
X7.543Y-5.4999
X7.5604Y-5.4581
X7.5604Y-5.5416
X7.6021Y-5.4408
X7.6021Y-5.5589
X7.6438Y-5.4581
X7.6438Y-5.5416
X7.6611Y-5.4999
X8.7311Y-5.483
X8.7484Y-5.4413
X8.7484Y-5.5247
X8.7901Y-5.424
X8.7901Y-5.5421
X8.8319Y-5.4413
X8.8319Y-5.5247
X8.8492Y-5.483
X8.85Y-6.5129
X8.8673Y-6.4712
X8.8673Y-6.5547
X8.909Y-6.4539
X8.909Y-6.572
X8.9508Y-6.4712
X8.9508Y-6.5547
X8.9681Y-6.5129
X10.683Y-4.2334
X10.7004Y-4.1917
X10.7004Y-4.2751
X10.7421Y-4.1744
X10.7421Y-4.2925
X10.7838Y-4.1917
X10.7838Y-4.2751
X10.8011Y-4.2334
X11.4523Y-5.1082
X11.4697Y-5.0665
X11.4697Y-5.1499
X11.5114Y-5.0492
X11.5114Y-5.1673
X11.5531Y-5.0665
X11.5531Y-5.1499
X11.5704Y-5.1082
X13.4106Y-5.3645
X13.4279Y-5.3228
X13.4279Y-5.4062
X13.4697Y-5.3055
X13.4697Y-5.4236
X13.5114Y-5.3228
X13.5114Y-5.4062
X13.5287Y-5.3645
T3
X2.7666Y-5.7171
X2.7788Y-5.8563
X3.4319Y-5.66
X3.4441Y-5.7993
X4.3938Y-4.2321
X4.4154Y-4.9006
X4.4391Y-5.5707
X4.5335Y-4.2272
X4.5551Y-4.8957
X4.5787Y-5.5658
X5.1831Y-4.6037
X5.1831Y-3.9344
X5.1831Y-5.2729
X5.3229Y-4.6037
X5.3229Y-3.9344
X5.3229Y-5.2729
X5.9312Y-5.5363
X5.9548Y-4.8689
X5.9765Y-4.1996
X6.0709Y-5.5411
X6.0945Y-4.8738
X6.1161Y-4.2045
X6.6457Y-5.3965
X6.6694Y-4.7272
X6.7854Y-5.4014
X6.809Y-4.7321
X6.8569Y-6.8503
X6.8931Y-6.7153
X7.5046Y-7.0235
X7.5408Y-6.8885
X8.8124Y-6.8735
X8.8486Y-7.0085
X9.4585Y-6.6999
X9.4947Y-6.8349
X9.5831Y-4.719
X9.6063Y-5.3832
X9.7228Y-4.7142
X9.746Y-5.3783
X10.2737Y-4.1879
X10.2977Y-4.8561
X10.3201Y-5.5265
X10.4133Y-4.1831
X10.4373Y-4.8512
X10.4598Y-5.5216
X11.0681Y-4.5855
X11.0685Y-5.2532
X11.0693Y-3.9178
X11.2079Y-4.5855
X11.2083Y-5.2532
X11.209Y-3.9178
X11.8138Y-5.5488
X11.8374Y-4.8779
X11.8607Y-4.2098
X11.9535Y-5.5537
X11.9771Y-4.8828
X12.0003Y-4.2147
X12.9461Y-5.7823
X12.9582Y-5.6431
X13.6146Y-5.8394
X13.6267Y-5.7001
T4
X7.2924Y-5.7887
X7.2958Y-5.6888
X7.2993Y-5.5888
X7.3028Y-5.4889
X7.3063Y-5.3889
X7.3098Y-5.289
X7.3133Y-5.1891
X7.892Y-5.8096
X7.8955Y-5.7097
X7.899Y-5.6098
X7.9025Y-5.5098
X7.906Y-5.4099
X7.9094Y-5.3099
X7.9129Y-5.21
X8.4821Y-5.192
X8.4855Y-5.292
X8.489Y-5.3919
X8.4925Y-5.4919
X8.496Y-5.5918
X8.4995Y-5.6917
X8.503Y-5.7917
X9.0817Y-5.1711
X9.0852Y-5.271
X9.0887Y-5.371
X9.0922Y-5.4709
X9.0957Y-5.5709
X9.0991Y-5.6708
X9.1026Y-5.7707
T5
X2.6076Y-4.5517
X3.7606Y-4.4509
X12.635Y-4.4329
X13.7881Y-4.5338
T6
X3.1228Y-5.9546
X3.188Y-5.7513
X3.7893Y-5.897
X3.8545Y-5.6936
X4.278Y-4.5711
X4.3002Y-5.2404
X4.3232Y-5.91
X4.4776Y-4.6468
X4.4998Y-5.3161
X4.5228Y-5.9857
X5.0561Y-4.269
X5.0561Y-5.6076
X5.0561Y-4.9383
X5.253Y-4.3517
X5.253Y-5.6903
X5.253Y-5.021
X5.793Y-5.868
X5.816Y-5.1991
X5.8384Y-4.5298
X5.9869Y-5.9575
X6.0098Y-5.2886
X6.0323Y-4.6193
X6.5077Y-5.7266
X6.5127Y-6.6761
X6.5314Y-5.0573
X6.6435Y-6.5074
X6.7016Y-5.8161
X6.7252Y-5.1468
X7.1603Y-6.8494
X7.2911Y-6.6806
X9.2037Y-7.0449
X9.2326Y-6.8334
X9.4683Y-5.0554
X9.4915Y-5.7242
X9.6679Y-5.1312
X9.6911Y-5.8
X9.8505Y-6.8716
X9.8794Y-6.66
X10.1588Y-4.5276
X10.1817Y-5.1965
X10.205Y-5.8654
X10.3585Y-4.6034
X10.3813Y-5.2723
X10.4046Y-5.9412
X10.9415Y-4.9213
X10.9415Y-5.5902
X10.9423Y-4.2524
X11.1384Y-5.004
X11.1384Y-5.6729
X11.1392Y-4.3351
X11.6749Y-5.8798
X11.6982Y-5.2111
X11.7218Y-4.5418
X11.8687Y-5.9693
X11.8921Y-5.3006
X11.9157Y-4.6313
X12.5373Y-5.6762
X12.6368Y-5.4873
X13.2042Y-5.7346
X13.3037Y-5.5457
T7
X2.9222Y-5.381
X4.8804Y-5.1255
X5.6497Y-4.2503
X7.4824Y-6.529
X7.6021Y-5.4999
X8.7901Y-5.483
X8.909Y-6.5129
X10.7421Y-4.2334
X11.5114Y-5.1082
X13.4697Y-5.3645
T0
M30
