%TF.GenerationSoftware,KiCad,Pcbnew,7.0.7*%
%TF.CreationDate,2023-10-03T23:41:34-07:00*%
%TF.ProjectId,neighboard,6e656967-6862-46f6-9172-642e6b696361,1.1*%
%TF.SameCoordinates,Original*%
%TF.FileFunction,Legend,Top*%
%TF.FilePolarity,Positive*%
%FSLAX46Y46*%
G04 Gerber Fmt 4.6, Leading zero omitted, Abs format (unit mm)*
G04 Created by KiCad (PCBNEW 7.0.7) date 2023-10-03 23:41:34*
%MOMM*%
%LPD*%
G01*
G04 APERTURE LIST*
%ADD10C,0.120000*%
%ADD11C,0.150000*%
%ADD12C,0.200000*%
%ADD13C,0.750000*%
G04 APERTURE END LIST*
D10*
%TO.C,SW34*%
X219045628Y-181100989D02*
X222426368Y-180195122D01*
X220425664Y-182387651D02*
X220813893Y-183836540D01*
X219459739Y-182646470D02*
X220425664Y-182387651D01*
X219847967Y-184095359D02*
X220813893Y-183836540D01*
X223642818Y-184734973D02*
X222426368Y-180195122D01*
X220262078Y-185640840D02*
X219045628Y-181100989D01*
X220262078Y-185640840D02*
X223642818Y-184734973D01*
D11*
%TO.C,SW23*%
X317738108Y-151141224D02*
X316741913Y-151054069D01*
X330688639Y-152274249D02*
X329692444Y-152187093D01*
X330688639Y-152274249D02*
X330775794Y-151278054D01*
X316829069Y-150057874D02*
X316741913Y-151054069D01*
X331821663Y-139323718D02*
X331908819Y-138327523D01*
X317962093Y-137107343D02*
X317874938Y-138103538D01*
X317962093Y-137107343D02*
X318958288Y-137194499D01*
X330912624Y-138240368D02*
X331908819Y-138327523D01*
%TO.C,SW9*%
X80465429Y-139100821D02*
X81461624Y-139013665D01*
X67514898Y-140233845D02*
X68511093Y-140146690D01*
X67514898Y-140233845D02*
X67602054Y-141230040D01*
X81548779Y-140009860D02*
X81461624Y-139013665D01*
X68647923Y-153184376D02*
X68735078Y-154180571D01*
X82681804Y-152960391D02*
X82594648Y-151964196D01*
X82681804Y-152960391D02*
X81685609Y-153047546D01*
X69731273Y-154093415D02*
X68735078Y-154180571D01*
%TO.C,D2*%
X130725900Y-100682896D02*
X130725900Y-99182896D01*
X130725900Y-100682896D02*
X136125900Y-100682896D01*
X132925900Y-99432896D02*
X133825900Y-99932896D01*
X132925900Y-100432896D02*
X132925900Y-99432896D01*
X133825900Y-99932896D02*
X132925900Y-100432896D01*
X133925900Y-100432896D02*
X133925900Y-99432896D01*
X136125900Y-99182896D02*
X130725900Y-99182896D01*
X136125900Y-100682896D02*
X136125900Y-99182896D01*
%TO.C,SW6*%
X140425900Y-127632897D02*
X140425900Y-128632897D01*
X140425900Y-114632897D02*
X140425900Y-115632897D01*
X140425900Y-114632897D02*
X139425900Y-114632897D01*
X139425900Y-128632897D02*
X140425900Y-128632897D01*
X127425900Y-114632897D02*
X126425900Y-114632897D01*
X126425900Y-128632897D02*
X127425900Y-128632897D01*
X126425900Y-128632897D02*
X126425900Y-127632897D01*
X126425900Y-115632897D02*
X126425900Y-114632897D01*
%TO.C,SW30*%
X249222049Y-162377330D02*
X250187974Y-162118511D01*
X236665013Y-165741978D02*
X237630939Y-165483158D01*
X236665013Y-165741978D02*
X236923832Y-166707903D01*
X250446794Y-163084437D02*
X250187974Y-162118511D01*
X240029660Y-178299013D02*
X240288480Y-179264939D01*
X253811441Y-175641472D02*
X253552622Y-174675547D01*
X253811441Y-175641472D02*
X252845515Y-175900292D01*
X241254405Y-179006120D02*
X240288480Y-179264939D01*
%TO.C,D25*%
X261232543Y-141155496D02*
X261180194Y-139656410D01*
X261232543Y-141155496D02*
X266629254Y-140967038D01*
X263387579Y-139829478D02*
X264304480Y-140297764D01*
X263422478Y-140828869D02*
X263387579Y-139829478D01*
X264304480Y-140297764D02*
X263422478Y-140828869D01*
X264421869Y-140793970D02*
X264386970Y-139794579D01*
X266576905Y-139467952D02*
X261180194Y-139656410D01*
X266629254Y-140967038D02*
X266576905Y-139467952D01*
%TO.C,SW7*%
X159641810Y-134673538D02*
X159606910Y-135672929D01*
X160095503Y-121681458D02*
X160060604Y-122680849D01*
X160095503Y-121681458D02*
X159096112Y-121646558D01*
X158607519Y-135638030D02*
X159606910Y-135672929D01*
X147103423Y-121227764D02*
X146104032Y-121192865D01*
X145615439Y-135184336D02*
X146614830Y-135219236D01*
X145615439Y-135184336D02*
X145650338Y-134184945D01*
X146069132Y-122192256D02*
X146104032Y-121192865D01*
%TO.C,D27*%
X299120192Y-141657039D02*
X299172541Y-140157953D01*
X299120192Y-141657039D02*
X304516903Y-141845497D01*
X301362476Y-140484580D02*
X302244478Y-141015685D01*
X301327577Y-141483971D02*
X301362476Y-140484580D01*
X302244478Y-141015685D02*
X301327577Y-141483971D01*
X302326968Y-141518870D02*
X302361867Y-140519479D01*
X304569252Y-140346411D02*
X299172541Y-140157953D01*
X304516903Y-141845497D02*
X304569252Y-140346411D01*
%TO.C,D18*%
X300310192Y-107647039D02*
X300362541Y-106147953D01*
X300310192Y-107647039D02*
X305706903Y-107835497D01*
X302552476Y-106474580D02*
X303434478Y-107005685D01*
X302517577Y-107473971D02*
X302552476Y-106474580D01*
X303434478Y-107005685D02*
X302517577Y-107473971D01*
X303516968Y-107508870D02*
X303551867Y-106509479D01*
X305759252Y-106336411D02*
X300362541Y-106147953D01*
X305706903Y-107835497D02*
X305759252Y-106336411D01*
%TO.C,D21*%
X280204723Y-117221723D02*
X280204723Y-115721723D01*
X280204723Y-117221723D02*
X285604723Y-117221723D01*
X282404723Y-115971723D02*
X283304723Y-116471723D01*
X282404723Y-116971723D02*
X282404723Y-115971723D01*
X283304723Y-116471723D02*
X282404723Y-116971723D01*
X283404723Y-116971723D02*
X283404723Y-115971723D01*
X285604723Y-115721723D02*
X280204723Y-115721723D01*
X285604723Y-117221723D02*
X285604723Y-115721723D01*
%TO.C,SW19*%
X252563949Y-130187367D02*
X252598848Y-131186758D01*
X252110255Y-117195287D02*
X252145155Y-118194678D01*
X252110255Y-117195287D02*
X251110864Y-117230186D01*
X251599457Y-131221658D02*
X252598848Y-131186758D01*
X239118175Y-117648980D02*
X238118784Y-117683880D01*
X238607377Y-131675351D02*
X239606768Y-131640452D01*
X238607377Y-131675351D02*
X238572477Y-130675960D01*
X238153683Y-118683271D02*
X238118784Y-117683880D01*
%TO.C,D23*%
X328472896Y-142346633D02*
X329967189Y-142477366D01*
X328472896Y-142346633D02*
X328002255Y-147726084D01*
X329526397Y-144647206D02*
X328949860Y-145500203D01*
X328530203Y-144560050D02*
X329526397Y-144647206D01*
X328949860Y-145500203D02*
X328530203Y-144560050D01*
X328443047Y-145556244D02*
X329439241Y-145643400D01*
X329496548Y-147856817D02*
X329967189Y-142477366D01*
X328002255Y-147726084D02*
X329496548Y-147856817D01*
%TO.C,SW27*%
X308457713Y-151964313D02*
X308422813Y-152963704D01*
X308911406Y-138972233D02*
X308876507Y-139971624D01*
X308911406Y-138972233D02*
X307912015Y-138937333D01*
X307423422Y-152928805D02*
X308422813Y-152963704D01*
X295919326Y-138518539D02*
X294919935Y-138483640D01*
X294431342Y-152475111D02*
X295430733Y-152510011D01*
X294431342Y-152475111D02*
X294466241Y-151475720D01*
X294885035Y-139483031D02*
X294919935Y-138483640D01*
%TO.C,SW5*%
X121295366Y-134884945D02*
X121330265Y-135884336D01*
X120841672Y-121892865D02*
X120876572Y-122892256D01*
X120841672Y-121892865D02*
X119842281Y-121927764D01*
X120330874Y-135919236D02*
X121330265Y-135884336D01*
X107849592Y-122346558D02*
X106850201Y-122381458D01*
X107338794Y-136372929D02*
X108338185Y-136338030D01*
X107338794Y-136372929D02*
X107303894Y-135373538D01*
X106885100Y-123380849D02*
X106850201Y-122381458D01*
D12*
%TO.C,THT4*%
X222872869Y-133186434D02*
G75*
G03*
X222872869Y-133186434I-1000000J0D01*
G01*
D11*
%TO.C,SW3*%
X160212238Y-117673539D02*
X160177338Y-118672930D01*
X160665931Y-104681459D02*
X160631032Y-105680850D01*
X160665931Y-104681459D02*
X159666540Y-104646559D01*
X159177947Y-118638031D02*
X160177338Y-118672930D01*
X147673851Y-104227765D02*
X146674460Y-104192866D01*
X146185867Y-118184337D02*
X147185258Y-118219237D01*
X146185867Y-118184337D02*
X146220766Y-117184946D01*
X146639560Y-105192257D02*
X146674460Y-104192866D01*
%TO.C,SW26*%
X289914723Y-144191724D02*
X289914723Y-145191724D01*
X289914723Y-131191724D02*
X289914723Y-132191724D01*
X289914723Y-131191724D02*
X288914723Y-131191724D01*
X288914723Y-145191724D02*
X289914723Y-145191724D01*
X276914723Y-131191724D02*
X275914723Y-131191724D01*
X275914723Y-145191724D02*
X276914723Y-145191724D01*
X275914723Y-145191724D02*
X275914723Y-144191724D01*
X275914723Y-132191724D02*
X275914723Y-131191724D01*
%TO.C,SW12*%
X159058890Y-151665484D02*
X159023990Y-152664875D01*
X159512583Y-138673404D02*
X159477684Y-139672795D01*
X159512583Y-138673404D02*
X158513192Y-138638504D01*
X158024599Y-152629976D02*
X159023990Y-152664875D01*
X146520503Y-138219710D02*
X145521112Y-138184811D01*
X145032519Y-152176282D02*
X146031910Y-152211182D01*
X145032519Y-152176282D02*
X145067418Y-151176891D01*
X145486212Y-139184202D02*
X145521112Y-138184811D01*
%TO.C,D17*%
X280234723Y-100261724D02*
X280234723Y-98761724D01*
X280234723Y-100261724D02*
X285634723Y-100261724D01*
X282434723Y-99011724D02*
X283334723Y-99511724D01*
X282434723Y-100011724D02*
X282434723Y-99011724D01*
X283334723Y-99511724D02*
X282434723Y-100011724D01*
X283434723Y-100011724D02*
X283434723Y-99011724D01*
X285634723Y-98761724D02*
X280234723Y-98761724D01*
X285634723Y-100261724D02*
X285634723Y-98761724D01*
%TO.C,D14*%
X174600265Y-169480783D02*
X176049154Y-169869012D01*
X174600265Y-169480783D02*
X173202642Y-174696782D01*
X175238270Y-171929344D02*
X174522370Y-172669267D01*
X174272345Y-171670525D02*
X175238270Y-171929344D01*
X174522370Y-172669267D02*
X174272345Y-171670525D01*
X174013526Y-172636450D02*
X174979451Y-172895269D01*
X174651531Y-175085011D02*
X176049154Y-169869012D01*
X173202642Y-174696782D02*
X174651531Y-175085011D01*
%TO.C,D1*%
X110703718Y-108276669D02*
X110651369Y-106777583D01*
X110703718Y-108276669D02*
X116100429Y-108088211D01*
X112858754Y-106950651D02*
X113775655Y-107418937D01*
X112893653Y-107950042D02*
X112858754Y-106950651D01*
X113775655Y-107418937D02*
X112893653Y-107950042D01*
X113893044Y-107915143D02*
X113858145Y-106915752D01*
X116048080Y-106589125D02*
X110651369Y-106777583D01*
X116100429Y-108088211D02*
X116048080Y-106589125D01*
%TO.C,D28*%
X345452896Y-143796633D02*
X346947189Y-143927366D01*
X345452896Y-143796633D02*
X344982255Y-149176084D01*
X346506397Y-146097206D02*
X345929860Y-146950203D01*
X345510203Y-146010050D02*
X346506397Y-146097206D01*
X345929860Y-146950203D02*
X345510203Y-146010050D01*
X345423047Y-147006244D02*
X346419241Y-147093400D01*
X346476548Y-149306817D02*
X346947189Y-143927366D01*
X344982255Y-149176084D02*
X346476548Y-149306817D01*
D12*
%TO.C,THT2*%
X193087189Y-133603472D02*
G75*
G03*
X193087189Y-133603472I-1000000J0D01*
G01*
D11*
%TO.C,SW1*%
X120731030Y-117884945D02*
X120765929Y-118884336D01*
X120277336Y-104892865D02*
X120312236Y-105892256D01*
X120277336Y-104892865D02*
X119277945Y-104927764D01*
X119766538Y-118919236D02*
X120765929Y-118884336D01*
X107285256Y-105346558D02*
X106285865Y-105381458D01*
X106774458Y-119372929D02*
X107773849Y-119338030D01*
X106774458Y-119372929D02*
X106739558Y-118373538D01*
X106320764Y-106380849D02*
X106285865Y-105381458D01*
%TO.C,SW24*%
X253153206Y-147175718D02*
X253188105Y-148175109D01*
X252699512Y-134183638D02*
X252734412Y-135183029D01*
X252699512Y-134183638D02*
X251700121Y-134218537D01*
X252188714Y-148210009D02*
X253188105Y-148175109D01*
X239707432Y-134637331D02*
X238708041Y-134672231D01*
X239196634Y-148663702D02*
X240196025Y-148628803D01*
X239196634Y-148663702D02*
X239161734Y-147664311D01*
X238742940Y-135671622D02*
X238708041Y-134672231D01*
%TO.C,SW8*%
X177812238Y-131073539D02*
X177777338Y-132072930D01*
X178265931Y-118081459D02*
X178231032Y-119080850D01*
X178265931Y-118081459D02*
X177266540Y-118046559D01*
X176777947Y-132038031D02*
X177777338Y-132072930D01*
X165273851Y-117627765D02*
X164274460Y-117592866D01*
X163785867Y-131584337D02*
X164785258Y-131619237D01*
X163785867Y-131584337D02*
X163820766Y-130584946D01*
X164239560Y-118592257D02*
X164274460Y-117592866D01*
%TO.C,SW10*%
X121877683Y-151892997D02*
X121912582Y-152892388D01*
X121423989Y-138900917D02*
X121458889Y-139900308D01*
X121423989Y-138900917D02*
X120424598Y-138935816D01*
X120913191Y-152927288D02*
X121912582Y-152892388D01*
X108431909Y-139354610D02*
X107432518Y-139389510D01*
X107921111Y-153380981D02*
X108920502Y-153346082D01*
X107921111Y-153380981D02*
X107886211Y-152381590D01*
X107467417Y-140388901D02*
X107432518Y-139389510D01*
%TO.C,SW4*%
X97392977Y-137636602D02*
X98389172Y-137549446D01*
X84442446Y-138769626D02*
X85438641Y-138682471D01*
X84442446Y-138769626D02*
X84529602Y-139765821D01*
X98476327Y-138545641D02*
X98389172Y-137549446D01*
X85575471Y-151720157D02*
X85662626Y-152716352D01*
X99609352Y-151496172D02*
X99522196Y-150499977D01*
X99609352Y-151496172D02*
X98613157Y-151583327D01*
X86658821Y-152629196D02*
X85662626Y-152716352D01*
%TO.C,SW28*%
X334677225Y-152624318D02*
X333681030Y-152537163D01*
X347627756Y-153757343D02*
X346631561Y-153670187D01*
X347627756Y-153757343D02*
X347714911Y-152761148D01*
X333768186Y-151540968D02*
X333681030Y-152537163D01*
X348760780Y-140806812D02*
X348847936Y-139810617D01*
X334901210Y-138590437D02*
X334814055Y-139586632D01*
X334901210Y-138590437D02*
X335897405Y-138677593D01*
X347851741Y-139723462D02*
X348847936Y-139810617D01*
%TO.C,D4*%
X88308367Y-148157257D02*
X86814074Y-148287990D01*
X88308367Y-148157257D02*
X87837726Y-142777806D01*
X86871381Y-146074573D02*
X87291038Y-145134420D01*
X87867575Y-145987417D02*
X86871381Y-146074573D01*
X87291038Y-145134420D02*
X87867575Y-145987417D01*
X87780419Y-144991223D02*
X86784225Y-145078379D01*
X86343433Y-142908539D02*
X86814074Y-148287990D01*
X87837726Y-142777806D02*
X86343433Y-142908539D01*
%TO.C,SW13*%
X177212236Y-148073536D02*
X177177336Y-149072927D01*
X177665929Y-135081456D02*
X177631030Y-136080847D01*
X177665929Y-135081456D02*
X176666538Y-135046556D01*
X176177945Y-149038028D02*
X177177336Y-149072927D01*
X164673849Y-134627762D02*
X163674458Y-134592863D01*
X163185865Y-148584334D02*
X164185256Y-148619234D01*
X163185865Y-148584334D02*
X163220764Y-147584943D01*
X163639558Y-135592254D02*
X163674458Y-134592863D01*
%TO.C,SW17*%
X289934723Y-110211723D02*
X289934723Y-111211723D01*
X289934723Y-97211723D02*
X289934723Y-98211723D01*
X289934723Y-97211723D02*
X288934723Y-97211723D01*
X288934723Y-111211723D02*
X289934723Y-111211723D01*
X276934723Y-97211723D02*
X275934723Y-97211723D01*
X275934723Y-111211723D02*
X276934723Y-111211723D01*
X275934723Y-111211723D02*
X275934723Y-110211723D01*
X275934723Y-98211723D02*
X275934723Y-97211723D01*
%TO.C,D6*%
X130725897Y-117682897D02*
X130725897Y-116182897D01*
X130725897Y-117682897D02*
X136125897Y-117682897D01*
X132925897Y-116432897D02*
X133825897Y-116932897D01*
X132925897Y-117432897D02*
X132925897Y-116432897D01*
X133825897Y-116932897D02*
X132925897Y-117432897D01*
X133925897Y-117432897D02*
X133925897Y-116432897D01*
X136125897Y-116182897D02*
X130725897Y-116182897D01*
X136125897Y-117682897D02*
X136125897Y-116182897D01*
%TO.C,D7*%
X150301369Y-124388212D02*
X150353718Y-122889126D01*
X150301369Y-124388212D02*
X155698080Y-124576670D01*
X152543653Y-123215753D02*
X153425655Y-123746858D01*
X152508754Y-124215144D02*
X152543653Y-123215753D01*
X153425655Y-123746858D02*
X152508754Y-124215144D01*
X153508145Y-124250043D02*
X153543044Y-123250652D01*
X155750429Y-123077584D02*
X150353718Y-122889126D01*
X155698080Y-124576670D02*
X155750429Y-123077584D01*
D12*
%TO.C,THT1*%
X189587189Y-139053472D02*
G75*
G03*
X189587189Y-139053472I-1000000J0D01*
G01*
D10*
%TO.C,BT2*%
X319065322Y-104654036D02*
X318912800Y-106397376D01*
X317866931Y-118351713D02*
X317714408Y-120095053D01*
X353434040Y-107660909D02*
X319065322Y-104654036D01*
X353434040Y-107660909D02*
X353281517Y-109404249D01*
X352083126Y-123101926D02*
X317714408Y-120095053D01*
X352083126Y-123101926D02*
X352235648Y-121358586D01*
D11*
%TO.C,D10*%
X111853718Y-142276669D02*
X111801369Y-140777583D01*
X111853718Y-142276669D02*
X117250429Y-142088211D01*
X114008754Y-140950651D02*
X114925655Y-141418937D01*
X114043653Y-141950042D02*
X114008754Y-140950651D01*
X114925655Y-141418937D02*
X114043653Y-141950042D01*
X115043044Y-141915143D02*
X115008145Y-140915752D01*
X117198080Y-140589125D02*
X111801369Y-140777583D01*
X117250429Y-142088211D02*
X117198080Y-140589125D01*
D10*
%TO.C,BT1*%
X98735713Y-120549969D02*
X98583190Y-118806629D01*
X97537321Y-106852292D02*
X97384799Y-105108952D01*
X64366995Y-123556842D02*
X98735713Y-120549969D01*
X64366995Y-123556842D02*
X64214473Y-121813502D01*
X63016081Y-108115825D02*
X97384799Y-105108952D01*
X63016081Y-108115825D02*
X63168604Y-109859165D01*
D11*
%TO.C,D9*%
X71408365Y-149607256D02*
X69914072Y-149737989D01*
X71408365Y-149607256D02*
X70937724Y-144227805D01*
X69971379Y-147524572D02*
X70391036Y-146584419D01*
X70967573Y-147437416D02*
X69971379Y-147524572D01*
X70391036Y-146584419D02*
X70967573Y-147437416D01*
X70880417Y-146441222D02*
X69884223Y-146528378D01*
X69443431Y-144358538D02*
X69914072Y-149737989D01*
X70937724Y-144227805D02*
X69443431Y-144358538D01*
%TO.C,SW22*%
X309050635Y-134979178D02*
X309015735Y-135978569D01*
X309504328Y-121987098D02*
X309469429Y-122986489D01*
X309504328Y-121987098D02*
X308504937Y-121952198D01*
X308016344Y-135943670D02*
X309015735Y-135978569D01*
X296512248Y-121533404D02*
X295512857Y-121498505D01*
X295024264Y-135489976D02*
X296023655Y-135524876D01*
X295024264Y-135489976D02*
X295059163Y-134490585D01*
X295477957Y-122497896D02*
X295512857Y-121498505D01*
%TO.C,SW2*%
X140425898Y-110632896D02*
X140425898Y-111632896D01*
X140425898Y-97632896D02*
X140425898Y-98632896D01*
X140425898Y-97632896D02*
X139425898Y-97632896D01*
X139425898Y-111632896D02*
X140425898Y-111632896D01*
X127425898Y-97632896D02*
X126425898Y-97632896D01*
X126425898Y-111632896D02*
X127425898Y-111632896D01*
X126425898Y-111632896D02*
X126425898Y-110632896D01*
X126425898Y-98632896D02*
X126425898Y-97632896D01*
%TO.C,D11*%
X130725901Y-134682895D02*
X130725901Y-133182895D01*
X130725901Y-134682895D02*
X136125901Y-134682895D01*
X132925901Y-133432895D02*
X133825901Y-133932895D01*
X132925901Y-134432895D02*
X132925901Y-133432895D01*
X133825901Y-133932895D02*
X132925901Y-134432895D01*
X133925901Y-134432895D02*
X133925901Y-133432895D01*
X136125901Y-133182895D02*
X130725901Y-133182895D01*
X136125901Y-134682895D02*
X136125901Y-133182895D01*
%TO.C,D19*%
X242512543Y-120645496D02*
X242460194Y-119146410D01*
X242512543Y-120645496D02*
X247909254Y-120457038D01*
X244667579Y-119319478D02*
X245584480Y-119787764D01*
X244702478Y-120318869D02*
X244667579Y-119319478D01*
X245584480Y-119787764D02*
X244702478Y-120318869D01*
X245701869Y-120283970D02*
X245666970Y-119284579D01*
X247856905Y-118957952D02*
X242460194Y-119146410D01*
X247909254Y-120457038D02*
X247856905Y-118957952D01*
%TO.C,D30*%
X242127979Y-174305610D02*
X240679090Y-174693839D01*
X242127979Y-174305610D02*
X240730356Y-169089611D01*
X240351170Y-172504097D02*
X240601195Y-171505355D01*
X241317095Y-172245278D02*
X240351170Y-172504097D01*
X240601195Y-171505355D02*
X241317095Y-172245278D01*
X241058276Y-171279353D02*
X240092351Y-171538172D01*
X239281467Y-169477840D02*
X240679090Y-174693839D01*
X240730356Y-169089611D02*
X239281467Y-169477840D01*
%TO.C,D5*%
X111253718Y-125256669D02*
X111201369Y-123757583D01*
X111253718Y-125256669D02*
X116650429Y-125068211D01*
X113408754Y-123930651D02*
X114325655Y-124398937D01*
X113443653Y-124930042D02*
X113408754Y-123930651D01*
X114325655Y-124398937D02*
X113443653Y-124930042D01*
X114443044Y-124895143D02*
X114408145Y-123895752D01*
X116598080Y-123569125D02*
X111201369Y-123757583D01*
X116650429Y-125068211D02*
X116598080Y-123569125D01*
%TO.C,D15*%
X191050266Y-173880784D02*
X192499155Y-174269013D01*
X191050266Y-173880784D02*
X189652643Y-179096783D01*
X191688271Y-176329345D02*
X190972371Y-177069268D01*
X190722346Y-176070526D02*
X191688271Y-176329345D01*
X190972371Y-177069268D02*
X190722346Y-176070526D01*
X190463527Y-177036451D02*
X191429452Y-177295270D01*
X191101532Y-179485012D02*
X192499155Y-174269013D01*
X189652643Y-179096783D02*
X191101532Y-179485012D01*
%TO.C,SW21*%
X289914723Y-127201725D02*
X289914723Y-128201725D01*
X289914723Y-114201725D02*
X289914723Y-115201725D01*
X289914723Y-114201725D02*
X288914723Y-114201725D01*
X288914723Y-128201725D02*
X289914723Y-128201725D01*
X276914723Y-114201725D02*
X275914723Y-114201725D01*
X275914723Y-128201725D02*
X276914723Y-128201725D01*
X275914723Y-128201725D02*
X275914723Y-127201725D01*
X275914723Y-115201725D02*
X275914723Y-114201725D01*
%TO.C,D26*%
X280214723Y-134181725D02*
X280214723Y-132681725D01*
X280214723Y-134181725D02*
X285614723Y-134181725D01*
X282414723Y-132931725D02*
X283314723Y-133431725D01*
X282414723Y-133931725D02*
X282414723Y-132931725D01*
X283314723Y-133431725D02*
X282414723Y-133931725D01*
X283414723Y-133931725D02*
X283414723Y-132931725D01*
X285614723Y-132681725D02*
X280214723Y-132681725D01*
X285614723Y-134181725D02*
X285614723Y-132681725D01*
%TO.C,D24*%
X243102542Y-137515497D02*
X243050193Y-136016411D01*
X243102542Y-137515497D02*
X248499253Y-137327039D01*
X245257578Y-136189479D02*
X246174479Y-136657765D01*
X245292477Y-137188870D02*
X245257578Y-136189479D01*
X246174479Y-136657765D02*
X245292477Y-137188870D01*
X246291868Y-137153971D02*
X246256969Y-136154580D01*
X248446904Y-135827953D02*
X243050193Y-136016411D01*
X248499253Y-137327039D02*
X248446904Y-135827953D01*
%TO.C,D22*%
X299720194Y-124617038D02*
X299772543Y-123117952D01*
X299720194Y-124617038D02*
X305116905Y-124805496D01*
X301962478Y-123444579D02*
X302844480Y-123975684D01*
X301927579Y-124443970D02*
X301962478Y-123444579D01*
X302844480Y-123975684D02*
X301927579Y-124443970D01*
X302926970Y-124478869D02*
X302961869Y-123479478D01*
X305169254Y-123306410D02*
X299772543Y-123117952D01*
X305116905Y-124805496D02*
X305169254Y-123306410D01*
D10*
%TO.C,SW33*%
X196149294Y-185954354D02*
X192768554Y-185048487D01*
X195597479Y-184150054D02*
X195985708Y-182701165D01*
X196563405Y-184408873D02*
X195597479Y-184150054D01*
X196951633Y-182959984D02*
X195985708Y-182701165D01*
X193985004Y-180508636D02*
X192768554Y-185048487D01*
X197365744Y-181414503D02*
X196149294Y-185954354D01*
X197365744Y-181414503D02*
X193985004Y-180508636D01*
D11*
%TO.C,SW20*%
X270684192Y-133771589D02*
X270719091Y-134770980D01*
X270230498Y-120779509D02*
X270265398Y-121778900D01*
X270230498Y-120779509D02*
X269231107Y-120814408D01*
X269719700Y-134805880D02*
X270719091Y-134770980D01*
X257238418Y-121233202D02*
X256239027Y-121268102D01*
X256727620Y-135259573D02*
X257727011Y-135224674D01*
X256727620Y-135259573D02*
X256692720Y-134260182D01*
X256273926Y-122267493D02*
X256239027Y-121268102D01*
%TO.C,D13*%
X167851367Y-137788211D02*
X167903716Y-136289125D01*
X167851367Y-137788211D02*
X173248078Y-137976669D01*
X170093651Y-136615752D02*
X170975653Y-137146857D01*
X170058752Y-137615143D02*
X170093651Y-136615752D01*
X170975653Y-137146857D02*
X170058752Y-137615143D01*
X171058143Y-137650042D02*
X171093042Y-136650651D01*
X173300427Y-136477583D02*
X167903716Y-136289125D01*
X173248078Y-137976669D02*
X173300427Y-136477583D01*
%TO.C,SW25*%
X271276506Y-150761825D02*
X271311405Y-151761216D01*
X270822812Y-137769745D02*
X270857712Y-138769136D01*
X270822812Y-137769745D02*
X269823421Y-137804644D01*
X270312014Y-151796116D02*
X271311405Y-151761216D01*
X257830732Y-138223438D02*
X256831341Y-138258338D01*
X257319934Y-152249809D02*
X258319325Y-152214910D01*
X257319934Y-152249809D02*
X257285034Y-151250418D01*
X256866240Y-139257729D02*
X256831341Y-138258338D01*
%TO.C,D12*%
X149701368Y-141338210D02*
X149753717Y-139839124D01*
X149701368Y-141338210D02*
X155098079Y-141526668D01*
X151943652Y-140165751D02*
X152825654Y-140696856D01*
X151908753Y-141165142D02*
X151943652Y-140165751D01*
X152825654Y-140696856D02*
X151908753Y-141165142D01*
X152908144Y-141200041D02*
X152943043Y-140200650D01*
X155150428Y-140027582D02*
X149753717Y-139839124D01*
X155098079Y-141526668D02*
X155150428Y-140027582D01*
%TO.C,SW14*%
X163513609Y-176309464D02*
X162547683Y-176050644D01*
X176070644Y-179674111D02*
X175104719Y-179415292D01*
X176070644Y-179674111D02*
X176329464Y-178708185D01*
X162806502Y-175084719D02*
X162547683Y-176050644D01*
X179435292Y-167117075D02*
X179694111Y-166151150D01*
X166171150Y-162527683D02*
X165912330Y-163493609D01*
X166171150Y-162527683D02*
X167137075Y-162786502D01*
X178728185Y-165892330D02*
X179694111Y-166151150D01*
%TO.C,D20*%
X260662541Y-124125497D02*
X260610192Y-122626411D01*
X260662541Y-124125497D02*
X266059252Y-123937039D01*
X262817577Y-122799479D02*
X263734478Y-123267765D01*
X262852476Y-123798870D02*
X262817577Y-122799479D01*
X263734478Y-123267765D02*
X262852476Y-123798870D01*
X263851867Y-123763971D02*
X263816968Y-122764580D01*
X266006903Y-122437953D02*
X260610192Y-122626411D01*
X266059252Y-123937039D02*
X266006903Y-122437953D01*
D12*
%TO.C,THT3*%
X219762868Y-138776435D02*
G75*
G03*
X219762868Y-138776435I-1000000J0D01*
G01*
D11*
%TO.C,D3*%
X150851369Y-107388210D02*
X150903718Y-105889124D01*
X150851369Y-107388210D02*
X156248080Y-107576668D01*
X153093653Y-106215751D02*
X153975655Y-106746856D01*
X153058754Y-107215142D02*
X153093653Y-106215751D01*
X153975655Y-106746856D02*
X153058754Y-107215142D01*
X154058145Y-107250041D02*
X154093044Y-106250650D01*
X156300429Y-106077582D02*
X150903718Y-105889124D01*
X156248080Y-107576668D02*
X156300429Y-106077582D01*
%TO.C,SW29*%
X232792050Y-166779922D02*
X233757975Y-166521103D01*
X220235014Y-170144570D02*
X221200940Y-169885750D01*
X220235014Y-170144570D02*
X220493833Y-171110495D01*
X234016795Y-167487029D02*
X233757975Y-166521103D01*
X223599661Y-182701605D02*
X223858481Y-183667531D01*
X237381442Y-180044064D02*
X237122623Y-179078139D01*
X237381442Y-180044064D02*
X236415516Y-180302884D01*
X224824406Y-183408712D02*
X223858481Y-183667531D01*
%TO.C,SW16*%
X270104193Y-116781590D02*
X270139092Y-117780981D01*
X269650499Y-103789510D02*
X269685399Y-104788901D01*
X269650499Y-103789510D02*
X268651108Y-103824409D01*
X269139701Y-117815881D02*
X270139092Y-117780981D01*
X256658419Y-104243203D02*
X255659028Y-104278103D01*
X256147621Y-118269574D02*
X257147012Y-118234675D01*
X256147621Y-118269574D02*
X256112721Y-117270183D01*
X255693927Y-105277494D02*
X255659028Y-104278103D01*
%TO.C,SW15*%
X179963609Y-180709464D02*
X178997683Y-180450644D01*
X192520644Y-184074111D02*
X191554719Y-183815292D01*
X192520644Y-184074111D02*
X192779464Y-183108185D01*
X179256502Y-179484719D02*
X178997683Y-180450644D01*
X195885292Y-171517075D02*
X196144111Y-170551150D01*
X182621150Y-166927683D02*
X182362330Y-167893609D01*
X182621150Y-166927683D02*
X183587075Y-167186502D01*
X195178185Y-170292330D02*
X196144111Y-170551150D01*
%TO.C,D16*%
X260052542Y-107155497D02*
X260000193Y-105656411D01*
X260052542Y-107155497D02*
X265449253Y-106967039D01*
X262207578Y-105829479D02*
X263124479Y-106297765D01*
X262242477Y-106828870D02*
X262207578Y-105829479D01*
X263124479Y-106297765D02*
X262242477Y-106828870D01*
X263241868Y-106793971D02*
X263206969Y-105794580D01*
X265396904Y-105467953D02*
X260000193Y-105656411D01*
X265449253Y-106967039D02*
X265396904Y-105467953D01*
%TO.C,SW11*%
X140425898Y-144632896D02*
X140425898Y-145632896D01*
X140425898Y-131632896D02*
X140425898Y-132632896D01*
X140425898Y-131632896D02*
X139425898Y-131632896D01*
X139425898Y-145632896D02*
X140425898Y-145632896D01*
X127425898Y-131632896D02*
X126425898Y-131632896D01*
X126425898Y-145632896D02*
X127425898Y-145632896D01*
X126425898Y-145632896D02*
X126425898Y-144632896D01*
X126425898Y-132632896D02*
X126425898Y-131632896D01*
%TO.C,D29*%
X225717979Y-178715608D02*
X224269090Y-179103837D01*
X225717979Y-178715608D02*
X224320356Y-173499609D01*
X223941170Y-176914095D02*
X224191195Y-175915353D01*
X224907095Y-176655276D02*
X223941170Y-176914095D01*
X224191195Y-175915353D02*
X224907095Y-176655276D01*
X224648276Y-175689351D02*
X223682351Y-175948170D01*
X222871467Y-173887838D02*
X224269090Y-179103837D01*
X224320356Y-173499609D02*
X222871467Y-173887838D01*
%TO.C,SW18*%
X309650635Y-117979179D02*
X309615735Y-118978570D01*
X310104328Y-104987099D02*
X310069429Y-105986490D01*
X310104328Y-104987099D02*
X309104937Y-104952199D01*
X308616344Y-118943671D02*
X309615735Y-118978570D01*
X297112248Y-104533405D02*
X296112857Y-104498506D01*
X295624264Y-118489977D02*
X296623655Y-118524877D01*
X295624264Y-118489977D02*
X295659163Y-117490586D01*
X296077957Y-105497897D02*
X296112857Y-104498506D01*
%TO.C,D8*%
X168451368Y-120788209D02*
X168503717Y-119289123D01*
X168451368Y-120788209D02*
X173848079Y-120976667D01*
X170693652Y-119615750D02*
X171575654Y-120146855D01*
X170658753Y-120615141D02*
X170693652Y-119615750D01*
X171575654Y-120146855D02*
X170658753Y-120615141D01*
X171658144Y-120650040D02*
X171693043Y-119650649D01*
X173900428Y-119477581D02*
X168503717Y-119289123D01*
X173848079Y-120976667D02*
X173900428Y-119477581D01*
%TD*%
D13*
%TO.C,SW34*%
X222672371Y-182562105D03*
X220016075Y-183273857D03*
%TD*%
%TO.C,SW33*%
X193739001Y-182875619D03*
X196395297Y-183587371D03*
%TD*%
M02*
