M48
; DRILL file {KiCad 7.0.7} date Tue Oct  3 23:41:37 2023
; FORMAT={-:-/ absolute / inch / decimal}
; #@! TF.CreationDate,2023-10-03T23:41:37-07:00
; #@! TF.GenerationSoftware,Kicad,Pcbnew,7.0.7
; #@! TF.FileFunction,NonPlated,1,2,NPTH
FMAT,2
INCH
; #@! TA.AperFunction,NonPlated,NPTH,ComponentDrill
T1C0.0295
; #@! TA.AperFunction,NonPlated,NPTH,ComponentDrill
T2C0.0354
; #@! TA.AperFunction,NonPlated,NPTH,ComponentDrill
T3C0.0670
; #@! TA.AperFunction,NonPlated,NPTH,ComponentDrill
T4C0.1350
%
G90
G05
T1
X7.6275Y-7.1998
X7.7321Y-7.2278
X8.6621Y-7.2155
X8.7666Y-7.1875
T2
X7.7904Y-6.8556
X7.821Y-6.7415
X8.5713Y-6.7216
X8.6018Y-6.8357
T3
X2.9378Y-5.5558
X2.9755Y-5.9873
X3.6042Y-5.4982
X3.6419Y-5.9296
X4.2531Y-4.4222
X4.2753Y-5.0915
X4.2983Y-5.7611
X4.6859Y-4.4071
X4.7081Y-5.0764
X4.7311Y-5.746
X5.0365Y-4.1194
X5.0365Y-5.458
X5.0365Y-4.7887
X5.4695Y-4.1194
X5.4695Y-5.458
X5.4695Y-4.7887
X5.7786Y-5.7178
X5.8015Y-5.0489
X5.824Y-4.3796
X6.2114Y-5.7329
X6.2343Y-5.064
X6.2568Y-4.3947
X6.4933Y-5.5764
X6.5169Y-4.9071
X6.681Y-6.9454
X6.7931Y-6.5271
X6.9261Y-5.5915
X6.9497Y-4.9222
X7.3286Y-7.1186
X7.4407Y-6.7003
X8.9522Y-6.6843
X9.0642Y-7.1026
X9.4434Y-4.9066
X9.4666Y-5.5754
X9.599Y-6.511
X9.7111Y-6.9293
X9.8762Y-4.8915
X9.8994Y-5.5603
X10.134Y-4.3788
X10.1568Y-5.0477
X10.1801Y-5.7166
X10.5668Y-4.3637
X10.5896Y-5.0326
X10.6129Y-5.7015
X10.9218Y-4.7717
X10.9218Y-5.4406
X10.9226Y-4.1028
X11.3549Y-4.7717
X11.3549Y-5.4406
X11.3557Y-4.1028
X11.6604Y-5.7296
X11.6838Y-5.0609
X11.7074Y-4.3916
X12.0932Y-5.7447
X12.1166Y-5.076
X12.1402Y-4.4067
X12.7498Y-5.9122
X12.7876Y-5.4808
X13.4167Y-5.9706
X13.4545Y-5.5392
T4
X2.9566Y-5.7715
X3.6231Y-5.7139
X4.4695Y-4.4147
X4.4917Y-5.084
X4.5147Y-5.7536
X5.253Y-4.1194
X5.253Y-5.458
X5.253Y-4.7887
X5.995Y-5.7254
X6.0179Y-5.0564
X6.0404Y-4.3871
X6.7097Y-5.584
X6.7333Y-4.9147
X6.737Y-6.7363
X7.3847Y-6.9095
X9.0082Y-6.8935
X9.655Y-6.7201
X9.6598Y-4.899
X9.683Y-5.5679
X10.3504Y-4.3712
X10.3732Y-5.0401
X10.3965Y-5.709
X11.1384Y-4.7717
X11.1384Y-5.4406
X11.1392Y-4.1028
X11.8768Y-5.7372
X11.9002Y-5.0684
X11.9238Y-4.3992
X12.7687Y-5.6965
X13.4356Y-5.7549
T0
M30
